<?xml version="1.0" encoding="utf-8"?>
<!-- Generator: Adobe Illustrator 24.0.0, SVG Export Plug-In . SVG Version: 6.00 Build 0)  -->
<svg version="1.1" id="Layer_1" xmlns="http://www.w3.org/2000/svg" xmlns:xlink="http://www.w3.org/1999/xlink" x="0px" y="0px"
	 viewBox="0 0 200 192.7" style="enable-background:new 0 0 200 192.7;" xml:space="preserve">
<g>
	<g>
		<path d="M10.5,190.6h186.2c0.7,0,1.2-0.5,1.2-1.2V3.6c0-0.7-0.5-1.2-1.2-1.2H10.5c-0.7,0-1.2,0.5-1.2,1.2v19.5
			c0,0.7,0.5,1.2,1.2,1.2h3.7c0.7,0,1.2-0.5,1.2-1.2V8.5h176.5v176.1H15.3v-14.6c0-0.7-0.5-1.2-1.2-1.2h-3.7c-0.7,0-1.2,0.5-1.2,1.2
			v19.5C9.3,190.1,9.8,190.6,10.5,190.6z"/>
		<path d="M11,66.4h4c0.6,0,1.1-0.5,1.1-1.1V42.7h6.9c0.6,0,1.1-0.5,1.1-1.1V38c0-0.6-0.5-1.1-1.1-1.1H3C2.4,36.9,2,37.3,2,38v3.5
			c0,0.6,0.5,1.1,1.1,1.1h6.9v22.6C9.9,66,10.4,66.4,11,66.4z"/>
		<path d="M37.6,36.9h-3.8c-0.7,0-1.1,0.4-1.1,1.1v27.3c0,0.7,0.4,1.1,1.1,1.1h3.8c0.7,0,1.2-0.5,1.2-1.1V54.5h9.8v10.8
			c0,0.7,0.5,1.1,1.1,1.1h3.9c0.7,0,1.1-0.4,1.1-1.1V38c0-0.7-0.4-1.1-1.1-1.1h-3.9c-0.7,0-1.1,0.5-1.1,1.1v10.7h-9.8V38
			C38.8,37.3,38.4,36.9,37.6,36.9z"/>
		<path d="M82,42.5c0.7,0,1.1-0.4,1.1-1.1V38c0-0.7-0.5-1.1-1.1-1.1H66.4c-0.7,0-1.1,0.4-1.1,1.1v27.3c0,0.7,0.4,1.1,1.1,1.1H82
			c0.7,0,1.1-0.4,1.1-1.1v-3.4c0-0.7-0.4-1.1-1.1-1.1H71.4v-6.7h9.5c0.7,0,1.1-0.4,1.1-1.1v-3.2c0-0.7-0.5-1.1-1.1-1.1h-9.5v-6.1H82
			z"/>
		<path d="M1.6,100.7c0,6.9,4.3,11,11.4,11c6.4,0,10.9-4.2,10.9-10.1v-6c0-0.7-0.5-1.1-1.2-1.1h-9c-0.7,0-1.1,0.5-1.1,1.2v3.2
			c0,0.7,0.4,1.1,1.1,1.1H18v1.4c0,3.1-1.6,4.6-5,4.6c-3.5,0-5.3-1.8-5.3-5.5v-8c0-3.7,1.7-5.5,5.3-5.5c2.5,0,4,1,4.7,3.3
			c0.1,0.4,0.3,0.7,0.6,0.8c0.3,0.1,0.6,0.2,1,0l3.4-1c0.7-0.3,1-0.8,0.8-1.6c-1.1-3.3-3.7-7.2-10.4-7.2c-3.6,0-6.5,1-8.5,3
			c-1.9,1.9-2.9,4.7-2.9,8V100.7z"/>
		<path d="M37.7,81.7h-3.8c-0.7,0-1.1,0.5-1.1,1.1V101c0,6.7,4.1,10.8,11,10.8c6.8,0,11-4.1,11-10.8V82.9c0-0.7-0.4-1.1-1.2-1.1
			h-3.8c-0.7,0-1.1,0.5-1.1,1.1v17.9c0,3.4-1.6,5.2-4.8,5.2c-3.2,0-4.8-1.7-4.8-5.2V82.9C38.9,82.1,38.5,81.7,37.7,81.7z"/>
		<path d="M65.2,110.2c0,0.7,0.4,1.1,1.1,1.1H82c0.7,0,1.1-0.4,1.1-1.1v-3.4c0-0.7-0.4-1.1-1.1-1.1H71.4V99h9.5
			c0.7,0,1.1-0.4,1.1-1.1v-3.2c0-0.7-0.5-1.1-1.1-1.1h-9.5v-6.1H82c0.7,0,1.1-0.4,1.1-1.1v-3.4c0-0.7-0.5-1.1-1.1-1.1H66.4
			c-0.7,0-1.1,0.4-1.1,1.1V110.2z"/>
		<path d="M101.7,106.1c-2.7,0-4.2-1-4.7-3.2c-0.1-0.4-0.3-0.6-0.6-0.8c-0.3-0.2-0.6-0.2-1,0l-3.3,1.1c-0.7,0.3-0.9,0.8-0.7,1.5
			c1.3,4.7,4.9,7.1,10.4,7.1c6.1,0,10.4-3.7,10.4-8.9c0-4.3-2.2-6.9-7.8-8.9c-5.3-1.9-6.1-2.7-6.1-4.2c0-1.7,1.4-2.8,3.9-2.8
			c2.2,0,3.5,0.8,4.3,2.8c0.4,0.9,1.1,0.8,1.6,0.6l3.1-1.1c0.4-0.1,0.7-0.4,0.8-0.6c0.1-0.3,0.1-0.6,0-0.9c-1.4-4.1-4.9-6.4-9.8-6.4
			c-5.8,0-9.9,3.6-9.9,8.5c0,4.4,2.4,7,8.6,9.3c4.4,1.6,5.2,2.4,5.2,4.1C105.9,105,104.3,106.1,101.7,106.1z"/>
		<path d="M128.4,111.3h4c0.6,0,1.1-0.5,1.1-1.1V87.5h6.9c0.6,0,1.1-0.5,1.1-1.1v-3.5c0-0.6-0.5-1.1-1.1-1.1h-19.9
			c-0.6,0-1.1,0.5-1.1,1.1v3.5c0,0.6,0.5,1.1,1.1,1.1h6.9v22.6C127.3,110.8,127.8,111.3,128.4,111.3z"/>
		<path d="M4.1,156.2h10.3c5.9,0,9.3-3,9.3-8.4v-0.6c0-3.1-1.5-5.5-3.8-6.6c1.9-1.2,3-3.3,3-5.8v-0.5c0-4.9-3.2-7.8-8.7-7.8H4.1
			c-0.7,0-1.1,0.4-1.1,1.1V155C2.9,155.7,3.4,156.2,4.1,156.2z M16.8,135.4c0,1.1-0.4,2.9-3.4,2.9H9.1v-6.1h4.3
			c2.3,0,3.4,0.9,3.4,2.9V135.4z M9.1,143.8h4.6c2.5,0,3.8,1.1,3.8,3.2v0.5c0,2.1-1.3,3.1-3.8,3.1H9.1V143.8z"/>
		<path d="M32.3,145.6c0,6.9,4.3,11,11.4,11c7,0,11.4-4.3,11.4-11.1v-8.3c0-6.8-4.4-11-11.4-11c-7.1,0-11.4,4.2-11.4,11.1V145.6z
			 M49,145.4c0,3.6-1.8,5.4-5.3,5.4c-3.5,0-5.3-1.8-5.3-5.4v-8.1c0-3.6,1.7-5.4,5.3-5.4c3.5,0,5.3,1.8,5.3,5.4V145.4z"/>
		<path d="M62.8,145.6c0,6.9,4.3,11,11.4,11c7,0,11.4-4.3,11.4-11.1v-8.3c0-6.8-4.4-11-11.4-11c-7.1,0-11.4,4.2-11.4,11.1V145.6z
			 M68.9,137.3c0-3.6,1.7-5.4,5.3-5.4c3.5,0,5.3,1.8,5.3,5.4v8.1c0,3.6-1.8,5.4-5.3,5.4c-3.5,0-5.3-1.8-5.3-5.4V137.3z"/>
		<path d="M117.4,127.1c-0.2-0.3-0.5-0.6-1-0.6h-4.1c-0.7,0-1.1,0.3-1.3,0.7l-9,11.5v-11c0-0.7-0.5-1.1-1.2-1.1H97
			c-0.7,0-1.1,0.4-1.1,1.1V155c0,0.7,0.4,1.1,1.1,1.1h3.8c0.7,0,1.2-0.5,1.2-1.1v-7.7l2.9-3.6l6.3,11.9c0.2,0.2,0.4,0.6,1.1,0.6h4.2
			c0.4,0,0.8-0.2,1-0.5c0.2-0.3,0.2-0.7,0-1.2l-8.7-15.8l8.3-10.4C117.5,127.9,117.6,127.5,117.4,127.1z"/>
	</g>
</g>
</svg>
