<svg width="224" height="46" viewBox="0 0 224 46" fill="none" xmlns="http://www.w3.org/2000/svg">
<g clip-path="url(#clip0_575_255)">
<mask id="mask0_575_255" style="mask-type:luminance" maskUnits="userSpaceOnUse" x="0" y="0" width="224" height="45">
<path d="M223.441 0.5H0V44.9622H223.441V0.5Z" fill="white"/>
</mask>
<g mask="url(#mask0_575_255)">
<path fill-rule="evenodd" clip-rule="evenodd" d="M29.9247 1.90829C30.3571 2.47669 30.6244 3.24587 30.6244 4.26477V5.4672L8.01275 8.67672C6.55646 8.97118 5.90163 9.93408 5.59738 10.863C5.44322 11.3337 5.38266 11.7897 5.36133 12.1305C5.35071 12.3 5.34993 12.4388 5.35171 12.5338C5.35259 12.5812 5.35411 12.6175 5.35533 12.6411L5.35683 12.6666L5.35717 12.6716L5.35864 12.6896L5.20253 36.4294L4.32256 36.5551L4.31791 36.5559C4.3082 36.5577 4.29486 36.56 4.27814 36.5627C4.24472 36.5682 4.19767 36.5751 4.13892 36.5822C4.02161 36.5962 3.8565 36.6107 3.6592 36.6134C3.26758 36.6188 2.73332 36.5782 2.19068 36.3842C1.64334 36.1885 1.08369 35.8348 0.664564 35.218C0.246536 34.6029 -0.00854492 33.7602 -0.00854492 32.6257V32.6229L0.155985 8.60182C0.155431 8.59305 0.154763 8.58158 0.154065 8.56753C0.152485 8.53575 0.150748 8.49074 0.149833 8.4342C0.148006 8.32122 0.149448 8.16155 0.162114 7.96881C0.187338 7.58499 0.257618 7.06134 0.440518 6.51116C0.80981 5.40029 1.65112 4.16177 3.4833 3.79534L3.49465 3.79306L26.2225 0.563487L26.272 0.967093C26.2225 0.563562 26.2223 0.563514 26.2225 0.563487L26.2247 0.563293L26.2284 0.562863L26.24 0.561576C26.2496 0.560547 26.2629 0.5592 26.2797 0.557683C26.3131 0.554651 26.3604 0.550934 26.4196 0.54773C26.5379 0.541332 26.7044 0.536932 26.9035 0.544326C27.299 0.559013 27.8362 0.620694 28.3809 0.814898C28.9274 1.00975 29.4949 1.3432 29.9247 1.90829ZM0.978004 8.55714L0.979364 8.57426L0.814626 32.6257C0.814626 32.6262 0.814626 32.6267 0.814626 32.6271C0.814833 33.6376 1.04124 34.3078 1.3454 34.7553C1.64861 35.2015 2.05206 35.4604 2.46783 35.6091C2.8883 35.7594 3.31715 35.7949 3.64786 35.7903C3.81172 35.7881 3.94758 35.7761 4.04095 35.7649C4.08754 35.7593 4.12326 35.7539 4.14627 35.7502L4.17093 35.746L4.17497 35.7453L4.18607 35.743L4.38404 35.7148L4.53526 12.7181C4.53469 12.7093 4.534 12.6978 4.53327 12.6838C4.5316 12.6517 4.52975 12.6063 4.52868 12.5492C4.52655 12.4351 4.52757 12.2738 4.53976 12.079C4.56404 11.6913 4.63313 11.1623 4.8151 10.6068C5.18233 9.48559 6.02314 8.23394 7.86282 7.86722L7.87407 7.86498L29.8012 4.75262V4.26477C29.8012 3.39587 29.576 2.80956 29.2696 2.40662C28.9606 2.00037 28.543 1.74663 28.1045 1.59026C27.6641 1.43324 27.2163 1.37968 26.873 1.36693C26.7026 1.3606 26.5614 1.36443 26.4641 1.3697C26.4156 1.37233 26.3782 1.3753 26.354 1.37749L26.3277 1.38007L26.3249 1.38038L3.63366 4.60475C2.18091 4.89947 1.5266 5.85355 1.22166 6.77084C1.06705 7.2359 1.00562 7.68634 0.983513 8.02279C0.972512 8.19019 0.971381 8.3272 0.972897 8.42088C0.973653 8.46766 0.975068 8.50347 0.976221 8.52667L0.977636 8.55175L0.978004 8.55714Z" fill="url(#paint0_linear_575_255)"/>
<path fill-rule="evenodd" clip-rule="evenodd" d="M38.7364 10.3257C39.1687 10.8991 39.4367 11.6723 39.4367 12.694C39.4367 14.5862 39.4614 20.6737 39.4861 26.2896C39.4984 29.0973 39.5108 31.7866 39.5201 33.774L39.5355 37.046C39.5355 37.0461 39.5355 37.0469 39.1239 37.0489C39.5348 37.0734 39.5347 37.0736 39.5347 37.0738L39.5346 37.0754L39.5344 37.0785L39.5337 37.0885L39.531 37.1223C39.5285 37.1508 39.5245 37.1911 39.5185 37.2418C39.5064 37.3429 39.4859 37.4859 39.452 37.659C39.3844 38.0042 39.2621 38.4749 39.0427 38.9757C38.6035 39.9778 37.7588 41.1308 36.1654 41.593L36.1377 41.601L13.1352 44.8965L13.1305 44.8974C13.1208 44.8991 13.1075 44.9015 13.0908 44.9042C13.0574 44.9096 13.0105 44.9166 12.9519 44.9236C12.8348 44.9377 12.6701 44.9522 12.4733 44.9549C12.0826 44.9603 11.5496 44.9196 11.0082 44.7255C10.462 44.5297 9.90384 44.1758 9.4859 43.559C9.06911 42.944 8.81482 42.1015 8.81482 40.9672V39.7539L31.5176 36.5249C32.7893 36.1425 33.4738 35.2294 33.8478 34.377C34.0363 33.9471 34.1421 33.5397 34.2005 33.2395C34.2296 33.0899 34.2467 32.9683 34.2563 32.8856C34.2612 32.8443 34.2642 32.8129 34.2659 32.7926L34.2671 32.7768L34.2535 29.9112C34.2453 28.1482 34.2343 25.7403 34.2233 23.161C34.2014 18.0028 34.1794 12.1573 34.1794 9.41228V9.05301L35.0284 8.93723L35.0739 9.34642C35.0285 8.93735 35.0282 8.93725 35.0284 8.93723L35.0307 8.93711L35.0344 8.93672L35.0461 8.93556C35.0557 8.93464 35.069 8.93344 35.0858 8.93212C35.1194 8.92946 35.1668 8.92627 35.2261 8.92374C35.3447 8.91869 35.5117 8.91619 35.7113 8.92589C36.1078 8.94516 36.6461 9.01319 37.1917 9.21398C37.739 9.41542 38.3066 9.75564 38.7364 10.3257ZM35.1226 9.75517L35.1244 9.75499L35.1508 9.75272C35.1751 9.75079 35.2125 9.74824 35.2612 9.74617C35.3588 9.742 35.5004 9.73978 35.6713 9.74809C36.0156 9.76483 36.4651 9.82371 36.9074 9.98649C37.3479 10.1486 37.768 10.4086 38.0791 10.8212C38.3877 11.2305 38.6135 11.8224 38.6135 12.694C38.6135 14.5885 38.6382 20.6784 38.6629 26.2932C38.6753 29.101 38.6876 31.7904 38.6969 33.7778L38.7122 37.0347L38.711 37.0503C38.7092 37.0708 38.7061 37.1025 38.7011 37.1441C38.6912 37.2275 38.6737 37.35 38.6442 37.5007C38.5849 37.8031 38.4781 38.2131 38.2887 38.6453C37.9128 39.5029 37.228 40.4175 35.9631 40.7944L12.9982 44.0845L12.9881 44.0866L12.9831 44.0875L12.9586 44.0917C12.9356 44.0954 12.9001 44.1008 12.8536 44.1063C12.7606 44.1175 12.6252 44.1295 12.4619 44.1318C12.1323 44.1364 11.705 44.1009 11.286 43.9506C10.8718 43.8021 10.4697 43.5434 10.1674 43.0973C9.86388 42.6494 9.63799 41.9786 9.63799 40.9672V40.4683L31.6929 37.3315L31.7213 37.3232C33.3185 36.8555 34.1633 35.7068 34.6016 34.7077C34.8205 34.2087 34.9417 33.7401 35.0085 33.3966C35.042 33.2243 35.0621 33.0821 35.0739 32.9814C35.0798 32.931 35.0837 32.8909 35.0861 32.8625L35.0887 32.8288L35.0894 32.8188L35.0896 32.8156L35.0897 32.8145C35.0897 32.8143 35.0897 32.8136 34.6788 32.7904L35.0897 32.8145L35.0904 32.801L35.0904 32.7883L34.6788 32.7904C35.0904 32.7883 35.0904 32.7885 35.0904 32.7883L35.0766 29.9073C35.0684 28.1444 35.0574 25.7367 35.0465 23.1575C35.0254 18.2139 35.0044 12.6416 35.0027 9.77153L35.1226 9.75517ZM39.1239 37.0489L39.5347 37.0738L39.5356 37.0602L39.5355 37.046L39.1239 37.0489Z" fill="url(#paint1_linear_575_255)"/>
<path fill-rule="evenodd" clip-rule="evenodd" d="M35.0079 8.93808L35.0088 9.41152C35.0143 12.1769 35.0363 18.0209 35.0568 23.1741C35.0671 25.7506 35.0771 28.1542 35.0844 29.9137L35.0966 32.7853L35.0966 32.7878C35.0966 32.7879 35.0966 32.7886 34.685 32.7904C35.096 32.8136 35.096 32.8138 35.0959 32.814L35.0959 32.8156L35.0957 32.8187L35.095 32.8287L35.0924 32.8624C35.0899 32.8909 35.0861 32.9311 35.0802 32.9816C35.0685 33.0826 35.0485 33.2253 35.0151 33.3981C34.9485 33.7429 34.8277 34.2132 34.6098 34.7146C34.1736 35.7181 33.3328 36.8754 31.7417 37.3552L31.7117 37.3642L8.83197 40.6183V35.0342L27.122 32.4421C28.3939 32.0544 29.0787 31.1385 29.4527 30.2847C29.6413 29.8541 29.7471 29.4462 29.8055 29.1458C29.8346 28.9961 29.8517 28.8744 29.8614 28.7917C29.8662 28.7504 29.8692 28.719 29.8709 28.6987L29.8721 28.6833L29.8602 26.8239C29.853 25.6525 29.8434 24.0135 29.8338 22.1434C29.8146 18.4033 29.7954 13.7378 29.7954 10.0379V9.68086L35.0079 8.93808ZM30.2838 28.6965C30.6947 28.7197 30.6947 28.7199 30.6947 28.7201L30.6946 28.7217L30.6944 28.7249L30.6938 28.7349L30.6911 28.7686C30.6887 28.797 30.6849 28.8371 30.679 28.8875C30.6672 28.9882 30.6471 29.1305 30.6136 29.3028C30.5468 29.6465 30.4255 30.1154 30.2067 30.615C29.7686 31.6152 28.9242 32.7664 27.3277 33.2398L27.2985 33.2485L9.65514 35.749V39.6698L31.5332 36.5581C32.799 36.1656 33.4817 35.245 33.8548 34.3865C34.043 33.9536 34.1486 33.5439 34.2068 33.2421C34.2359 33.0917 34.2529 32.9695 34.2626 32.8864C34.2674 32.8449 34.2704 32.8133 34.2721 32.7929L34.2734 32.7768L34.2613 29.9172C34.2539 28.1576 34.244 25.7539 34.2337 23.1774C34.2142 18.3021 34.1935 12.8074 34.1867 9.88659L30.6186 10.395C30.6198 14.0325 30.6384 18.5188 30.657 22.1392C30.6666 24.009 30.6762 25.6476 30.6834 26.8188L30.6954 28.6931C30.6954 28.6932 30.6954 28.6937 30.2838 28.6965ZM30.2838 28.6965L30.6954 28.6931L30.6955 28.7067L30.6947 28.7201L30.2838 28.6965ZM34.685 32.7904L35.0959 32.814L35.0967 32.8011L35.0966 32.7878L34.685 32.7904Z" fill="url(#paint2_linear_575_255)"/>
<path fill-rule="evenodd" clip-rule="evenodd" d="M30.6415 4.6026V10.3621L12.4442 12.9457C10.9898 13.2559 10.3379 14.2117 10.0359 15.1239C9.88266 15.5868 9.82257 16.034 9.80145 16.3676C9.79094 16.5337 9.79021 16.6694 9.79199 16.7622C9.79288 16.8085 9.7944 16.8439 9.79562 16.8668L9.7971 16.8916L9.79743 16.8963L9.79895 16.9145L9.68695 35.7158L4.39569 36.4698L4.55239 12.6406C4.55183 12.6319 4.55116 12.6204 4.55046 12.6063C4.54888 12.5745 4.54715 12.5295 4.54623 12.473C4.5444 12.36 4.54585 12.2003 4.55851 12.0076C4.58374 11.6238 4.65402 11.1001 4.83692 10.5499C5.20621 9.43907 6.04752 8.20056 7.8797 7.83413L7.89108 7.83185L30.6415 4.6026ZM5.3744 12.5959L5.37576 12.613L5.22512 35.5202L8.86803 35.001L8.97559 16.9439C8.97501 16.9353 8.97433 16.9241 8.9736 16.9105C8.97193 16.8789 8.97006 16.8342 8.96897 16.778C8.96681 16.6658 8.9678 16.5072 8.97992 16.3156C9.00407 15.9342 9.07294 15.4134 9.25444 14.8652C9.62106 13.7578 10.4589 12.5214 12.288 12.1373L12.3013 12.1345L29.8183 9.64753V5.55086L8.03003 8.64355C6.5773 8.93827 5.92299 9.89234 5.61806 10.8096C5.46345 11.2747 5.40202 11.7251 5.37991 12.0616C5.36891 12.229 5.36778 12.366 5.3693 12.4596C5.37005 12.5064 5.37147 12.5422 5.37262 12.5654L5.37404 12.5905L5.3744 12.5959Z" fill="url(#paint3_linear_575_255)"/>
<path fill-rule="evenodd" clip-rule="evenodd" d="M30.6308 9.53131L30.6357 10.0005C30.6741 13.7174 30.6933 18.3834 30.7029 22.1194C30.7077 23.9876 30.7101 25.6235 30.7113 26.7924C30.7119 27.3768 30.7122 27.8445 30.7124 28.1661L30.7125 28.6628C30.7125 28.6629 30.7125 28.6633 30.301 28.6633C30.7119 28.6864 30.7119 28.6866 30.7119 28.6868L30.7118 28.6884L30.7116 28.6916L30.7109 28.7016L30.7083 28.7354C30.7059 28.764 30.702 28.8043 30.6961 28.8549C30.6843 28.9562 30.6643 29.0992 30.6308 29.2724C30.564 29.6177 30.4428 30.0886 30.224 30.5896C29.786 31.5925 28.9409 32.7454 27.342 33.2075L27.3142 33.2155L8.84601 35.8329L8.96976 16.9436C8.96919 16.9349 8.9685 16.9236 8.96778 16.9097C8.9661 16.8779 8.96424 16.8328 8.96316 16.7761C8.961 16.6629 8.96198 16.5028 8.97409 16.3097C8.99821 15.9251 9.067 15.4003 9.24843 14.8494C9.61478 13.7368 10.4537 12.4969 12.2874 12.1363L12.2981 12.1342L30.6308 9.53131ZM9.79169 16.8972L9.79314 16.9148L9.67541 34.8839L27.1406 32.4087C28.4109 32.0316 29.0954 31.117 29.4697 30.2601C29.6583 29.8282 29.7642 29.4184 29.8226 29.1161C29.8517 28.9655 29.8688 28.843 29.8785 28.7598C29.8833 28.7182 29.8863 28.6864 29.888 28.666L29.8894 28.649L29.8892 28.1665C29.8891 27.8451 29.8888 27.3775 29.8882 26.7932C29.887 25.6247 29.8846 23.9892 29.8798 22.1215C29.8706 18.5416 29.8525 14.1098 29.8173 10.4782L12.4358 12.946C10.9841 13.2355 10.3327 14.1884 10.0303 15.1068C9.87698 15.5724 9.8168 16.0238 9.79565 16.3612C9.78512 16.5291 9.78439 16.6665 9.78618 16.7604C9.78707 16.8074 9.78859 16.8433 9.78981 16.8666L9.79131 16.8918L9.79169 16.8972ZM30.301 28.6633L30.7119 28.6868L30.7125 28.6749V28.6628L30.301 28.6633Z" fill="url(#paint4_linear_575_255)"/>
<path d="M58.4708 10.5208H63.9586V20.8708H75.1757V10.4879H80.6635V36.3464H75.1757V25.5355H64.0025V36.3464H58.5147L58.4708 10.5208Z" fill="#231F20"/>
<path d="M96.0568 36.3793L96.1227 33.8877C95.5261 34.9224 94.6516 35.769 93.5981 36.3316C92.5446 36.8942 91.3545 37.1503 90.1629 37.0707C85.6739 37.0707 82.48 33.4927 82.48 27.7415C82.48 21.9902 85.3666 18.478 90.3275 18.478C91.5234 18.4463 92.7041 18.7517 93.7347 19.3592C94.7653 19.9666 95.6043 20.8517 96.1556 21.9134V19.0488H100.93V36.3793H96.0568ZM92.0068 22.6377C89.2519 22.6377 87.6166 24.5146 87.6166 27.6976C87.6166 30.8805 89.2519 32.6585 92.0068 32.6585C94.7617 32.6585 96.3971 30.8805 96.3971 27.6976C96.3971 24.5146 94.608 22.6377 92.0068 22.6377Z" fill="#231F20"/>
<path d="M115.343 18.6757L114.585 24.1086C113.841 23.7841 113.037 23.6232 112.226 23.6367C109.01 23.6367 107.923 25.2611 107.923 28.7403V36.3684H102.896V19.0489H107.846L107.748 23.505C108.757 20.1355 110.678 18.4781 113.455 18.4781C114.088 18.5046 114.718 18.5706 115.343 18.6757Z" fill="#231F20"/>
<path d="M117.045 36.3794V19.0489H122.072V21.7709C122.669 20.7597 123.523 19.9232 124.546 19.3454C125.568 18.7675 126.724 18.4684 127.9 18.4782C130.754 18.4782 132.56 19.6598 133.322 22.0233C133.946 20.9614 134.834 20.0778 135.899 19.4571C136.964 18.8364 138.17 18.4994 139.402 18.4782C141.861 18.4782 143.562 19.3818 144.506 21.1891C145.098 22.6184 145.331 24.1708 145.187 25.7111V36.3794H140.16V27.8074C140.16 24.4489 139.83 22.5611 137.262 22.5611C134.518 22.5611 133.574 24.6574 133.574 28.7513V36.3794H128.515V27.8074C128.515 24.5148 128.152 22.594 125.837 22.594C123.049 22.594 122.039 24.6574 122.039 28.7513V36.3794H117.045Z" fill="#231F20"/>
<path d="M156.147 37.0707C150.363 37.0707 146.456 32.9439 146.456 27.7744C146.454 26.5195 146.708 25.2775 147.199 24.1231C147.691 22.9687 148.411 21.9257 149.317 21.0571C150.222 20.1885 151.294 19.5122 152.469 19.069C153.642 18.6257 154.893 18.4247 156.147 18.478C161.832 18.478 165.806 22.4512 165.806 27.7744C165.817 29.0293 165.574 30.2735 165.087 31.4308C164.601 32.588 163.885 33.6338 162.98 34.5042C162.076 35.3746 161.003 36.0511 159.829 36.4924C158.654 36.9337 157.401 37.1305 156.147 37.0707ZM156.147 23.1097C155.221 23.0901 154.312 23.3468 153.533 23.8471C152.754 24.3472 152.143 25.0683 151.776 25.9181C151.41 26.7678 151.304 27.7075 151.474 28.6173C151.645 29.5271 152.081 30.3655 152.73 31.0254C153.38 31.6852 154.211 32.1366 155.117 32.3218C156.024 32.5071 156.966 32.4177 157.822 32.0652C158.677 31.7127 159.408 31.1129 159.921 30.3428C160.435 29.5726 160.706 28.6669 160.702 27.7415C160.762 27.1202 160.684 26.4935 160.477 25.9052C160.268 25.3169 159.933 24.7813 159.496 24.3358C159.06 23.8904 158.531 23.5459 157.946 23.3265C157.362 23.1072 156.736 23.0182 156.114 23.0658L156.147 23.1097Z" fill="#231F20"/>
<path d="M167.798 19.0487H172.727V21.7706C173.443 20.7411 174.401 19.9028 175.517 19.3288C176.632 18.7549 177.871 18.4627 179.125 18.478C181.77 18.478 183.614 19.378 184.668 21.2219C185.28 22.6342 185.525 24.1784 185.381 25.7109V36.3792H180.355V27.8072C180.355 24.5145 180.069 22.5609 177.062 22.5609C176.409 22.5467 175.762 22.6911 175.177 22.9816C174.592 23.2722 174.086 23.7003 173.703 24.2292C172.987 25.37 172.68 26.7213 172.836 28.0597V36.3792H167.798V19.0487Z" fill="#231F20"/>
<path d="M185.643 19.0487H191.46L194.467 26.9731C194.904 28.2229 195.169 29.5262 195.257 30.8475C195.513 29.47 195.88 28.1155 196.355 26.7975L199 19.0487H204.751L194.445 44.2926H188.88L192.645 35.0621L185.643 19.0487Z" fill="#231F20"/>
<path d="M218.512 36.3793L218.589 33.8877C217.989 34.9215 217.112 35.7672 216.057 36.3295C215.002 36.8918 213.811 37.1485 212.618 37.0707C208.129 37.0707 204.936 33.4927 204.936 27.7415C204.936 21.9902 207.833 18.478 212.783 18.478C213.978 18.4463 215.159 18.7517 216.19 19.3592C217.221 19.9666 218.059 20.8517 218.611 21.9134V19.0488H223.386V36.3793H218.512ZM214.462 22.6377C211.707 22.6377 210.072 24.5146 210.072 27.6976C210.072 30.8805 211.697 32.6585 214.462 32.6585C217.228 32.6585 218.853 30.8805 218.853 27.6976C218.853 24.5146 217.107 22.6377 214.506 22.6377H214.462Z" fill="#231F20"/>
</g>
</g>
<defs>
<linearGradient id="paint0_linear_575_255" x1="-0.00305775" y1="18.5221" x2="30.6299" y2="18.5221" gradientUnits="userSpaceOnUse">
<stop stop-color="#969595"/>
<stop offset="0.15" stop-color="#D2D2D2"/>
<stop offset="1" stop-color="#D5D4D4"/>
</linearGradient>
<linearGradient id="paint1_linear_575_255" x1="8.80933" y1="26.9404" x2="39.519" y2="26.9404" gradientUnits="userSpaceOnUse">
<stop stop-color="#89C666"/>
<stop offset="0.94" stop-color="#27BFD4"/>
</linearGradient>
<linearGradient id="paint2_linear_575_255" x1="8.81551" y1="24.7562" x2="35.0911" y2="24.7562" gradientUnits="userSpaceOnUse">
<stop stop-color="#DBE8A5"/>
<stop offset="1" stop-color="#A6D06A"/>
</linearGradient>
<linearGradient id="paint3_linear_575_255" x1="4.38236" y1="20.5523" x2="30.647" y2="20.5523" gradientUnits="userSpaceOnUse">
<stop stop-color="#CACAC9"/>
<stop offset="0.15" stop-color="#D2D2D2"/>
<stop offset="1" stop-color="#D5D4D4"/>
</linearGradient>
<linearGradient id="paint4_linear_575_255" x1="8.84364" y1="22.7035" x2="30.7071" y2="22.7035" gradientUnits="userSpaceOnUse">
<stop stop-color="#F492A2"/>
<stop offset="0.71" stop-color="#FFC718"/>
</linearGradient>
<clipPath id="clip0_575_255">
<rect width="223.902" height="45" fill="white" transform="translate(0 0.5)"/>
</clipPath>
</defs>
</svg>
