<?xml version="1.0" encoding="UTF-8"?><svg xmlns="http://www.w3.org/2000/svg" viewBox="0 0 1193.36 461.76"><defs><style>.d{fill:#fff;}.e{fill:#1450f5;}</style></defs><g id="a"/><g id="b"><g id="c"><g><rect class="e" width="269.36" height="461.76"/><rect class="e" x="307.84" width="269.36" height="461.76"/><rect class="e" x="615.67" width="269.36" height="461.76"/><rect class="e" x="924.01" width="269.36" height="461.76"/><polygon class="d" points="48.22 132.07 100.91 132.07 100.91 218.29 166.14 132.07 228.2 132.07 156.18 225.09 233.14 329.69 168.65 329.69 100.91 236.06 100.91 329.69 48.22 329.69 48.22 132.07"/><polygon class="d" points="662.48 132.07 708.51 132.07 789.32 239.42 789.32 132.07 838.22 132.07 838.22 329.69 794.28 329.69 711.22 214.01 711.22 329.69 662.48 329.69 662.48 132.07"/><path class="d" d="M442.5,127.72c-56.79,0-102.47,41.93-102.47,103.12s45.68,103.2,102.47,103.2,102.49-42.02,102.49-103.2-45.68-103.12-102.49-103.12Zm0,159.68c-28.08,0-49.78-23.01-49.78-56.55s21.69-56.55,49.78-56.55,49.77,23.09,49.77,56.55-21.77,56.55-49.77,56.55Z"/><polygon class="d" points="1133.44 175.62 1036 175.62 1036 209.03 1117.47 209.03 1117.45 251.34 1036 251.34 1036 284.85 1133.44 284.85 1133.44 329.71 983.93 329.71 983.93 132.05 1133.44 132.05 1133.44 175.62"/></g></g></g></svg>