<?xml version="1.0" encoding="UTF-8" standalone="no"?><!-- Generator: Gravit.io --><svg xmlns="http://www.w3.org/2000/svg" xmlns:xlink="http://www.w3.org/1999/xlink" style="isolation:isolate" viewBox="586.28 343.2 108.38 15.94" width="108.38pt" height="15.94pt"><defs><clipPath id="_clipPath_EU6zmA16WhmOCw7lAy9q56cYKQeazMUH"><rect x="586.28" y="343.2" width="108.38" height="15.94"/></clipPath></defs><g clip-path="url(#_clipPath_EU6zmA16WhmOCw7lAy9q56cYKQeazMUH)"><path d=" M 600.38 347.76 L 600.38 347.76 Q 602.4 347.76 603.57 349.01 L 603.57 349.01 L 603.57 349.01 Q 604.74 350.26 604.74 352.56 L 604.74 352.56 L 604.74 359 L 601.94 359 L 601.94 352.88 L 601.94 352.88 Q 601.94 351.6 601.29 350.91 L 601.29 350.91 L 601.29 350.91 Q 600.64 350.22 599.5 350.22 L 599.5 350.22 L 599.5 350.22 Q 598.32 350.22 597.62 350.96 L 597.62 350.96 L 597.62 350.96 Q 596.92 351.7 596.92 353.12 L 596.92 353.12 L 596.92 359 L 594.12 359 L 594.12 352.88 L 594.12 352.88 Q 594.12 351.6 593.47 350.91 L 593.47 350.91 L 593.47 350.91 Q 592.82 350.22 591.68 350.22 L 591.68 350.22 L 591.68 350.22 Q 590.5 350.22 589.8 350.96 L 589.8 350.96 L 589.8 350.96 Q 589.1 351.7 589.1 353.12 L 589.1 353.12 L 589.1 359 L 586.28 359 L 586.28 347.92 L 589.1 347.92 L 589.1 350.02 L 589.1 350.02 Q 589.54 348.94 590.49 348.35 L 590.49 348.35 L 590.49 348.35 Q 591.44 347.76 592.7 347.76 L 592.7 347.76 L 592.7 347.76 Q 594.04 347.76 595.03 348.4 L 595.03 348.4 L 595.03 348.4 Q 596.02 349.04 596.52 350.24 L 596.52 350.24 L 596.52 350.24 Q 597.04 349.1 598.07 348.43 L 598.07 348.43 L 598.07 348.43 Q 599.1 347.76 600.38 347.76 L 600.38 347.76 L 600.38 347.76 Z  M 611.56 347.78 L 611.56 347.78 Q 612.96 347.78 613.96 348.44 L 613.96 348.44 L 613.96 348.44 Q 614.96 349.1 615.38 350.22 L 615.38 350.22 L 615.38 347.92 L 618.18 347.92 L 618.18 359 L 615.38 359 L 615.38 356.68 L 615.38 356.68 Q 614.96 357.8 613.96 358.47 L 613.96 358.47 L 613.96 358.47 Q 612.96 359.14 611.56 359.14 L 611.56 359.14 L 611.56 359.14 Q 610.16 359.14 609.04 358.46 L 609.04 358.46 L 609.04 358.46 Q 607.92 357.78 607.29 356.49 L 607.29 356.49 L 607.29 356.49 Q 606.66 355.2 606.66 353.46 L 606.66 353.46 L 606.66 353.46 Q 606.66 351.72 607.29 350.43 L 607.29 350.43 L 607.29 350.43 Q 607.92 349.14 609.04 348.46 L 609.04 348.46 L 609.04 348.46 Q 610.16 347.78 611.56 347.78 L 611.56 347.78 L 611.56 347.78 Z  M 612.44 350.24 L 612.44 350.24 Q 611.12 350.24 610.32 351.1 L 610.32 351.1 L 610.32 351.1 Q 609.52 351.96 609.52 353.46 L 609.52 353.46 L 609.52 353.46 Q 609.52 354.96 610.32 355.81 L 610.32 355.81 L 610.32 355.81 Q 611.12 356.66 612.44 356.66 L 612.44 356.66 L 612.44 356.66 Q 613.72 356.66 614.55 355.79 L 614.55 355.79 L 614.55 355.79 Q 615.38 354.92 615.38 353.46 L 615.38 353.46 L 615.38 353.46 Q 615.38 351.98 614.55 351.11 L 614.55 351.11 L 614.55 351.11 Q 613.72 350.24 612.44 350.24 L 612.44 350.24 L 612.44 350.24 Z  M 630.66 359 L 627.22 359 L 623.56 354.16 L 623.56 359 L 620.74 359 L 620.74 344.2 L 623.56 344.2 L 623.56 352.52 L 627.2 347.92 L 630.54 347.92 L 625.88 353.44 L 630.66 359 L 630.66 359 Z  M 642.44 353.04 L 642.44 353.04 Q 642.44 353.46 642.34 354 L 642.34 354 L 634.22 354 L 634.22 354 Q 634.28 355.48 635.02 356.18 L 635.02 356.18 L 635.02 356.18 Q 635.76 356.88 636.86 356.88 L 636.86 356.88 L 636.86 356.88 Q 637.84 356.88 638.49 356.4 L 638.49 356.4 L 638.49 356.4 Q 639.14 355.92 639.32 355.1 L 639.32 355.1 L 642.3 355.1 L 642.3 355.1 Q 642.08 356.26 641.36 357.18 L 641.36 357.18 L 641.36 357.18 Q 640.64 358.1 639.51 358.62 L 639.51 358.62 L 639.51 358.62 Q 638.38 359.14 637 359.14 L 637 359.14 L 637 359.14 Q 635.38 359.14 634.12 358.45 L 634.12 358.45 L 634.12 358.45 Q 632.86 357.76 632.16 356.48 L 632.16 356.48 L 632.16 356.48 Q 631.46 355.2 631.46 353.46 L 631.46 353.46 L 631.46 353.46 Q 631.46 351.72 632.16 350.43 L 632.16 350.43 L 632.16 350.43 Q 632.86 349.14 634.12 348.46 L 634.12 348.46 L 634.12 348.46 Q 635.38 347.78 637 347.78 L 637 347.78 L 637 347.78 Q 638.64 347.78 639.87 348.46 L 639.87 348.46 L 639.87 348.46 Q 641.1 349.14 641.77 350.33 L 641.77 350.33 L 641.77 350.33 Q 642.44 351.52 642.44 353.04 L 642.44 353.04 L 642.44 353.04 Z  M 639.6 352.76 L 639.6 352.76 Q 639.66 351.4 638.89 350.7 L 638.89 350.7 L 638.89 350.7 Q 638.12 350 637 350 L 637 350 L 637 350 Q 635.86 350 635.08 350.7 L 635.08 350.7 L 635.08 350.7 Q 634.3 351.4 634.22 352.76 L 634.22 352.76 L 639.6 352.76 L 639.6 352.76 Z  M 647.29 345.103 L 650 345.18 L 646.824 359.14 L 644 359.14 L 647.29 345.103 Z  M 655.92 347.78 L 655.92 347.78 Q 657.94 347.78 659.16 348.8 L 659.16 348.8 L 659.16 348.8 Q 660.38 349.82 660.68 351.52 L 660.68 351.52 L 658.04 351.52 L 658.04 351.52 Q 657.88 350.72 657.32 350.24 L 657.32 350.24 L 657.32 350.24 Q 656.76 349.76 655.86 349.76 L 655.86 349.76 L 655.86 349.76 Q 655.14 349.76 654.74 350.1 L 654.74 350.1 L 654.74 350.1 Q 654.34 350.44 654.34 351.02 L 654.34 351.02 L 654.34 351.02 Q 654.34 351.48 654.66 351.76 L 654.66 351.76 L 654.66 351.76 Q 654.98 352.04 655.46 352.2 L 655.46 352.2 L 655.46 352.2 Q 655.94 352.36 656.84 352.58 L 656.84 352.58 L 656.84 352.58 Q 658.1 352.86 658.89 353.17 L 658.89 353.17 L 658.89 353.17 Q 659.68 353.48 660.25 354.15 L 660.25 354.15 L 660.25 354.15 Q 660.82 354.82 660.82 355.96 L 660.82 355.96 L 660.82 355.96 Q 660.82 357.38 659.71 358.26 L 659.71 358.26 L 659.71 358.26 Q 658.6 359.14 656.72 359.14 L 656.72 359.14 L 656.72 359.14 Q 654.56 359.14 653.26 358.17 L 653.26 358.17 L 653.26 358.17 Q 651.96 357.2 651.68 355.4 L 651.68 355.4 L 654.38 355.4 L 654.38 355.4 Q 654.48 356.22 655.1 356.69 L 655.1 356.69 L 655.1 356.69 Q 655.72 357.16 656.72 357.16 L 656.72 357.16 L 656.72 357.16 Q 657.44 357.16 657.82 356.81 L 657.82 356.81 L 657.82 356.81 Q 658.2 356.46 658.2 355.9 L 658.2 355.9 L 658.2 355.9 Q 658.2 355.42 657.87 355.12 L 657.87 355.12 L 657.87 355.12 Q 657.54 354.82 657.05 354.66 L 657.05 354.66 L 657.05 354.66 Q 656.56 354.5 655.66 354.28 L 655.66 354.28 L 655.66 354.28 Q 654.42 354 653.65 353.71 L 653.65 353.71 L 653.65 353.71 Q 652.88 353.42 652.33 352.78 L 652.33 352.78 L 652.33 352.78 Q 651.78 352.14 651.78 351.02 L 651.78 351.02 L 651.78 351.02 Q 651.78 349.58 652.88 348.68 L 652.88 348.68 L 652.88 348.68 Q 653.98 347.78 655.92 347.78 L 655.92 347.78 L 655.92 347.78 Z  M 669.52 347.76 L 669.52 347.76 Q 671.44 347.76 672.58 349.02 L 672.58 349.02 L 672.58 349.02 Q 673.72 350.28 673.72 352.56 L 673.72 352.56 L 673.72 359 L 670.92 359 L 670.92 352.88 L 670.92 352.88 Q 670.92 351.56 670.24 350.83 L 670.24 350.83 L 670.24 350.83 Q 669.56 350.1 668.38 350.1 L 668.38 350.1 L 668.38 350.1 Q 667.18 350.1 666.46 350.88 L 666.46 350.88 L 666.46 350.88 Q 665.74 351.66 665.74 353.12 L 665.74 353.12 L 665.74 359 L 662.92 359 L 662.92 344.2 L 665.74 344.2 L 665.74 350.14 L 665.74 350.14 Q 666.18 349.02 667.19 348.39 L 667.19 348.39 L 667.19 348.39 Q 668.2 347.76 669.52 347.76 L 669.52 347.76 L 669.52 347.76 Z  M 675.88 344.74 L 675.88 344.74 Q 675.88 344.06 676.36 343.63 L 676.36 343.63 L 676.36 343.63 Q 676.84 343.2 677.62 343.2 L 677.62 343.2 L 677.62 343.2 Q 678.4 343.2 678.88 343.63 L 678.88 343.63 L 678.88 343.63 Q 679.36 344.06 679.36 344.74 L 679.36 344.74 L 679.36 344.74 Q 679.36 345.4 678.88 345.83 L 678.88 345.83 L 678.88 345.83 Q 678.4 346.26 677.62 346.26 L 677.62 346.26 L 677.62 346.26 Q 676.84 346.26 676.36 345.83 L 676.36 345.83 L 676.36 345.83 Q 675.88 345.4 675.88 344.74 L 675.88 344.74 L 675.88 344.74 Z  M 676.2 347.92 L 679.02 347.92 L 679.02 359 L 676.2 359 L 676.2 347.92 L 676.2 347.92 Z  M 687.06 346 L 687.06 346 Q 685.82 345.92 685.32 346.36 L 685.32 346.36 L 685.32 346.36 Q 684.82 346.8 684.82 347.9 L 684.82 347.9 L 684.82 347.92 L 687.06 347.92 L 687.06 350.3 L 684.82 350.3 L 684.82 359 L 682 359 L 682 350.3 L 680.58 350.3 L 680.58 347.92 L 682 347.92 L 682 347.66 L 682 347.66 Q 682 345.68 683.13 344.61 L 683.13 344.61 L 683.13 344.61 Q 684.26 343.54 686.48 343.54 L 686.48 343.54 L 686.48 343.54 Q 686.86 343.54 687.06 343.56 L 687.06 343.56 L 687.06 346 L 687.06 346 Z  M 693.56 356.58 L 694.66 356.58 L 694.66 359 L 693.18 359 L 693.18 359 Q 691.32 359 690.33 358.1 L 690.33 358.1 L 690.33 358.1 Q 689.34 357.2 689.34 355.1 L 689.34 355.1 L 689.34 350.3 L 687.8 350.3 L 687.8 347.92 L 689.34 347.92 L 689.34 345.18 L 692.16 345.18 L 692.16 347.92 L 694.64 347.92 L 694.64 350.3 L 692.16 350.3 L 692.16 355.14 L 692.16 355.14 Q 692.16 355.94 692.48 356.26 L 692.48 356.26 L 692.48 356.26 Q 692.8 356.58 693.56 356.58 L 693.56 356.58 L 693.56 356.58 Z " fill="rgb(51,51,51)"/></g></svg>