<?xml version="1.0" encoding="utf-8"?>
<!-- Generator: Adobe Illustrator 27.0.0, SVG Export Plug-In . SVG Version: 6.00 Build 0)  -->
<svg version="1.1" id="Layer_1" xmlns="http://www.w3.org/2000/svg" xmlns:xlink="http://www.w3.org/1999/xlink" x="0px" y="0px"
	 viewBox="0 0 16 13.7" style="enable-background:new 0 0 16 13.7;" xml:space="preserve">
<path d="M1.2,6.8c0,0.4,0.3,0.7,0.8,0.8h10.2l-4.4,4.4c-0.3,0.3-0.3,0.8,0,1.1c0.1,0.1,0.3,0.2,0.5,0.2c0.2,0,0.4-0.1,0.5-0.2
	l5.7-5.7c0.3-0.3,0.3-0.8,0-1.1L8.9,0.6c-0.3-0.3-0.8-0.3-1.1,0c-0.3,0.3-0.3,0.7,0,1L12.2,6H2C1.6,6.1,1.3,6.4,1.2,6.8z"/>
</svg>
